<mxfile host="app.diagrams.net" modified="2021-05-10T14:49:49.829Z" agent="5.0 (Macintosh; Intel Mac OS X 10_15_7) AppleWebKit/537.36 (KHTML, like Gecko) Chrome/90.0.4430.93 Safari/537.36" etag="uEGSN2HT4PpTsGvjBy5j" version="14.6.11" type="github">
  <diagram name="Page-1" id="5f0bae14-7c28-e335-631c-24af17079c00">
    <mxGraphModel dx="640" dy="660" grid="1" gridSize="10" guides="1" tooltips="1" connect="1" arrows="1" fold="1" page="1" pageScale="1" pageWidth="1100" pageHeight="850" background="#ffffff" math="0" shadow="0">
      <root>
        <mxCell id="0" />
        <mxCell id="1" parent="0" />
        <mxCell id="5gdE1bRl6CsMhmlNMG4k-2" value="Database" style="shape=module;align=left;spacingLeft=20;align=center;verticalAlign=top;" vertex="1" parent="1">
          <mxGeometry x="405" y="440" width="100" height="50" as="geometry" />
        </mxCell>
        <mxCell id="5gdE1bRl6CsMhmlNMG4k-3" value="Storage-API" style="shape=module;align=left;spacingLeft=20;align=center;verticalAlign=top;" vertex="1" parent="1">
          <mxGeometry x="405" y="320" width="100" height="50" as="geometry" />
        </mxCell>
        <mxCell id="5gdE1bRl6CsMhmlNMG4k-8" value="" style="group" vertex="1" connectable="0" parent="1">
          <mxGeometry x="20" y="110" width="210" height="130" as="geometry" />
        </mxCell>
        <mxCell id="5gdE1bRl6CsMhmlNMG4k-4" value="User&#39;s browser" style="shape=module;align=left;spacingLeft=20;align=center;verticalAlign=top;" vertex="1" parent="5gdE1bRl6CsMhmlNMG4k-8">
          <mxGeometry width="210" height="130" as="geometry" />
        </mxCell>
        <mxCell id="5gdE1bRl6CsMhmlNMG4k-1" value="Web form (React)" style="shape=module;align=left;spacingLeft=20;align=center;verticalAlign=top;" vertex="1" parent="5gdE1bRl6CsMhmlNMG4k-8">
          <mxGeometry x="40" y="40" width="120" height="50" as="geometry" />
        </mxCell>
        <mxCell id="5gdE1bRl6CsMhmlNMG4k-9" value="" style="group" vertex="1" connectable="0" parent="1">
          <mxGeometry x="350" y="110" width="210" height="130" as="geometry" />
        </mxCell>
        <mxCell id="5gdE1bRl6CsMhmlNMG4k-6" value="Web server" style="shape=module;align=left;spacingLeft=20;align=center;verticalAlign=top;" vertex="1" parent="5gdE1bRl6CsMhmlNMG4k-9">
          <mxGeometry width="210" height="130" as="geometry" />
        </mxCell>
        <mxCell id="5gdE1bRl6CsMhmlNMG4k-7" value="Web backend" style="shape=module;align=left;spacingLeft=20;align=center;verticalAlign=top;" vertex="1" parent="5gdE1bRl6CsMhmlNMG4k-9">
          <mxGeometry x="55" y="40" width="100" height="50" as="geometry" />
        </mxCell>
        <mxCell id="5gdE1bRl6CsMhmlNMG4k-11" value="" style="rounded=0;orthogonalLoop=1;jettySize=auto;html=1;endArrow=none;endFill=0;exitX=1;exitY=0.5;exitDx=0;exitDy=0;startArrow=none;" edge="1" parent="1" source="5gdE1bRl6CsMhmlNMG4k-13">
          <mxGeometry relative="1" as="geometry">
            <mxPoint x="260" y="280" as="sourcePoint" />
            <mxPoint x="320" y="175" as="targetPoint" />
          </mxGeometry>
        </mxCell>
        <mxCell id="5gdE1bRl6CsMhmlNMG4k-12" value="" style="rounded=0;orthogonalLoop=1;jettySize=auto;html=1;endArrow=halfCircle;endFill=0;endSize=6;strokeWidth=1;exitX=0;exitY=0.5;exitDx=10;exitDy=0;exitPerimeter=0;" edge="1" parent="1" source="5gdE1bRl6CsMhmlNMG4k-6">
          <mxGeometry relative="1" as="geometry">
            <mxPoint x="350" y="335" as="sourcePoint" />
            <mxPoint x="320" y="175" as="targetPoint" />
          </mxGeometry>
        </mxCell>
        <mxCell id="5gdE1bRl6CsMhmlNMG4k-13" value="" style="ellipse;whiteSpace=wrap;html=1;fontFamily=Helvetica;fontSize=12;fontColor=#000000;align=center;strokeColor=#000000;fillColor=#ffffff;points=[];aspect=fixed;resizable=0;" vertex="1" parent="1">
          <mxGeometry x="310" y="170" width="10" height="10" as="geometry" />
        </mxCell>
        <mxCell id="5gdE1bRl6CsMhmlNMG4k-14" value="" style="rounded=0;orthogonalLoop=1;jettySize=auto;html=1;endArrow=none;endFill=0;exitX=1;exitY=0.5;exitDx=0;exitDy=0;" edge="1" parent="1" source="5gdE1bRl6CsMhmlNMG4k-4" target="5gdE1bRl6CsMhmlNMG4k-13">
          <mxGeometry relative="1" as="geometry">
            <mxPoint x="230" y="175" as="sourcePoint" />
            <mxPoint x="320" y="175" as="targetPoint" />
          </mxGeometry>
        </mxCell>
        <mxCell id="5gdE1bRl6CsMhmlNMG4k-15" value="" style="rounded=0;orthogonalLoop=1;jettySize=auto;html=1;endArrow=none;endFill=0;exitX=0;exitY=0.5;exitDx=10;exitDy=0;exitPerimeter=0;" edge="1" target="5gdE1bRl6CsMhmlNMG4k-17" parent="1" source="5gdE1bRl6CsMhmlNMG4k-6">
          <mxGeometry relative="1" as="geometry">
            <mxPoint x="310" y="335" as="sourcePoint" />
          </mxGeometry>
        </mxCell>
        <mxCell id="5gdE1bRl6CsMhmlNMG4k-17" value="" style="ellipse;whiteSpace=wrap;html=1;fontFamily=Helvetica;fontSize=12;fontColor=#000000;align=center;strokeColor=#000000;fillColor=#ffffff;points=[];aspect=fixed;resizable=0;" vertex="1" parent="1">
          <mxGeometry x="380" y="170" width="10" height="10" as="geometry" />
        </mxCell>
        <mxCell id="5gdE1bRl6CsMhmlNMG4k-16" value="" style="rounded=0;orthogonalLoop=1;jettySize=auto;html=1;endArrow=halfCircle;endFill=0;endSize=6;strokeWidth=1;exitX=0.11;exitY=0.48;exitDx=0;exitDy=0;exitPerimeter=0;entryX=1;entryY=0.5;entryDx=0;entryDy=0;entryPerimeter=0;" edge="1" target="5gdE1bRl6CsMhmlNMG4k-17" parent="1" source="5gdE1bRl6CsMhmlNMG4k-7">
          <mxGeometry relative="1" as="geometry">
            <mxPoint x="350" y="335" as="sourcePoint" />
            <mxPoint x="380" y="177" as="targetPoint" />
          </mxGeometry>
        </mxCell>
        <mxCell id="5gdE1bRl6CsMhmlNMG4k-18" value="" style="rounded=0;orthogonalLoop=1;jettySize=auto;html=1;endArrow=none;endFill=0;exitX=0.5;exitY=1;exitDx=0;exitDy=0;" edge="1" target="5gdE1bRl6CsMhmlNMG4k-23" parent="1" source="5gdE1bRl6CsMhmlNMG4k-7">
          <mxGeometry relative="1" as="geometry">
            <mxPoint x="310" y="335" as="sourcePoint" />
            <mxPoint x="455" y="260" as="targetPoint" />
          </mxGeometry>
        </mxCell>
        <mxCell id="5gdE1bRl6CsMhmlNMG4k-19" value="" style="rounded=0;orthogonalLoop=1;jettySize=auto;html=1;endArrow=halfCircle;endFill=0;endSize=6;strokeWidth=1;exitX=0.5;exitY=0;exitDx=0;exitDy=0;startArrow=none;" edge="1" parent="1" source="5gdE1bRl6CsMhmlNMG4k-20">
          <mxGeometry relative="1" as="geometry">
            <mxPoint x="350" y="335" as="sourcePoint" />
            <mxPoint x="455" y="280" as="targetPoint" />
          </mxGeometry>
        </mxCell>
        <mxCell id="5gdE1bRl6CsMhmlNMG4k-20" value="" style="ellipse;whiteSpace=wrap;html=1;fontFamily=Helvetica;fontSize=12;fontColor=#000000;align=center;strokeColor=#000000;fillColor=#ffffff;points=[];aspect=fixed;resizable=0;" vertex="1" parent="1">
          <mxGeometry x="450" y="280" width="10" height="10" as="geometry" />
        </mxCell>
        <mxCell id="5gdE1bRl6CsMhmlNMG4k-22" value="" style="rounded=0;orthogonalLoop=1;jettySize=auto;html=1;endArrow=none;endFill=0;endSize=6;strokeWidth=1;exitX=0.5;exitY=0;exitDx=0;exitDy=0;" edge="1" parent="1" source="5gdE1bRl6CsMhmlNMG4k-3" target="5gdE1bRl6CsMhmlNMG4k-20">
          <mxGeometry relative="1" as="geometry">
            <mxPoint x="455" y="320" as="sourcePoint" />
            <mxPoint x="455" y="280" as="targetPoint" />
          </mxGeometry>
        </mxCell>
        <mxCell id="5gdE1bRl6CsMhmlNMG4k-23" value="" style="shape=requiredInterface;html=1;verticalLabelPosition=bottom;direction=north;" vertex="1" parent="1">
          <mxGeometry x="445" y="270" width="20" height="10" as="geometry" />
        </mxCell>
      </root>
    </mxGraphModel>
  </diagram>
</mxfile>
